<mxfile host="Electron" agent="Mozilla/5.0 (Windows NT 10.0; Win64; x64) AppleWebKit/537.36 (KHTML, like Gecko) draw.io/24.7.8 Chrome/128.0.6613.36 Electron/32.0.1 Safari/537.36" version="24.7.8">
  <diagram name="Page-1" id="-ALyismuMr9pzudCEAen">
    <mxGraphModel dx="1020" dy="496" grid="1" gridSize="10" guides="1" tooltips="1" connect="1" arrows="1" fold="1" page="1" pageScale="1" pageWidth="850" pageHeight="1100" math="0" shadow="0">
      <root>
        <mxCell id="0" />
        <mxCell id="1" parent="0" />
        <mxCell id="G3jogoAw5SwDlib6V-3w-2" value="&lt;font style=&quot;font-size: 18px;&quot;&gt;Account&lt;/font&gt;" style="shape=umlLifeline;perimeter=lifelinePerimeter;whiteSpace=wrap;html=1;container=1;dropTarget=0;collapsible=0;recursiveResize=0;outlineConnect=0;portConstraint=eastwest;newEdgeStyle={&quot;curved&quot;:0,&quot;rounded&quot;:0};" parent="1" vertex="1">
          <mxGeometry x="200" y="240" width="100" height="2200" as="geometry" />
        </mxCell>
        <mxCell id="Ng8NAmU_FJ0zgmwMVsHG-28" value="" style="shape=umlDestroy;whiteSpace=wrap;html=1;strokeWidth=3;targetShapes=umlLifeline;" parent="G3jogoAw5SwDlib6V-3w-2" vertex="1">
          <mxGeometry x="35" y="2170" width="30" height="30" as="geometry" />
        </mxCell>
        <mxCell id="G3jogoAw5SwDlib6V-3w-3" value="&lt;font style=&quot;font-size: 18px;&quot;&gt;Product&lt;/font&gt;" style="shape=umlLifeline;perimeter=lifelinePerimeter;whiteSpace=wrap;html=1;container=1;dropTarget=0;collapsible=0;recursiveResize=0;outlineConnect=0;portConstraint=eastwest;newEdgeStyle={&quot;curved&quot;:0,&quot;rounded&quot;:0};" parent="1" vertex="1">
          <mxGeometry x="360" y="240" width="100" height="2200" as="geometry" />
        </mxCell>
        <mxCell id="G3jogoAw5SwDlib6V-3w-36" value="" style="html=1;points=[[0,0,0,0,5],[0,1,0,0,-5],[1,0,0,0,5],[1,1,0,0,-5]];perimeter=orthogonalPerimeter;outlineConnect=0;targetShapes=umlLifeline;portConstraint=eastwest;newEdgeStyle={&quot;curved&quot;:0,&quot;rounded&quot;:0};" parent="G3jogoAw5SwDlib6V-3w-3" vertex="1">
          <mxGeometry x="45" y="800" width="10" height="80" as="geometry" />
        </mxCell>
        <mxCell id="Ng8NAmU_FJ0zgmwMVsHG-29" value="" style="shape=umlDestroy;whiteSpace=wrap;html=1;strokeWidth=3;targetShapes=umlLifeline;" parent="G3jogoAw5SwDlib6V-3w-3" vertex="1">
          <mxGeometry x="35" y="2170" width="30" height="30" as="geometry" />
        </mxCell>
        <mxCell id="G3jogoAw5SwDlib6V-3w-4" value="&lt;font style=&quot;font-size: 18px;&quot;&gt;Order&lt;/font&gt;" style="shape=umlLifeline;perimeter=lifelinePerimeter;whiteSpace=wrap;html=1;container=1;dropTarget=0;collapsible=0;recursiveResize=0;outlineConnect=0;portConstraint=eastwest;newEdgeStyle={&quot;curved&quot;:0,&quot;rounded&quot;:0};" parent="1" vertex="1">
          <mxGeometry x="520" y="240" width="100" height="2200" as="geometry" />
        </mxCell>
        <mxCell id="Ng8NAmU_FJ0zgmwMVsHG-30" value="" style="shape=umlDestroy;whiteSpace=wrap;html=1;strokeWidth=3;targetShapes=umlLifeline;" parent="G3jogoAw5SwDlib6V-3w-4" vertex="1">
          <mxGeometry x="35" y="2170" width="30" height="30" as="geometry" />
        </mxCell>
        <mxCell id="G3jogoAw5SwDlib6V-3w-5" value="&lt;font style=&quot;font-size: 18px;&quot;&gt;Payment&lt;/font&gt;" style="shape=umlLifeline;perimeter=lifelinePerimeter;whiteSpace=wrap;html=1;container=1;dropTarget=0;collapsible=0;recursiveResize=0;outlineConnect=0;portConstraint=eastwest;newEdgeStyle={&quot;curved&quot;:0,&quot;rounded&quot;:0};" parent="1" vertex="1">
          <mxGeometry x="680" y="240" width="100" height="2200" as="geometry" />
        </mxCell>
        <mxCell id="G3jogoAw5SwDlib6V-3w-60" value="" style="html=1;points=[[0,0,0,0,5],[0,1,0,0,-5],[1,0,0,0,5],[1,1,0,0,-5]];perimeter=orthogonalPerimeter;outlineConnect=0;targetShapes=umlLifeline;portConstraint=eastwest;newEdgeStyle={&quot;curved&quot;:0,&quot;rounded&quot;:0};" parent="G3jogoAw5SwDlib6V-3w-5" vertex="1">
          <mxGeometry x="50" y="1970" width="10" height="80" as="geometry" />
        </mxCell>
        <mxCell id="Ng8NAmU_FJ0zgmwMVsHG-31" value="" style="shape=umlDestroy;whiteSpace=wrap;html=1;strokeWidth=3;targetShapes=umlLifeline;" parent="G3jogoAw5SwDlib6V-3w-5" vertex="1">
          <mxGeometry x="35" y="2170" width="30" height="30" as="geometry" />
        </mxCell>
        <mxCell id="G3jogoAw5SwDlib6V-3w-6" value="&lt;font style=&quot;font-size: 18px;&quot;&gt;Reselling&amp;nbsp;&lt;/font&gt;" style="shape=umlLifeline;perimeter=lifelinePerimeter;whiteSpace=wrap;html=1;container=1;dropTarget=0;collapsible=0;recursiveResize=0;outlineConnect=0;portConstraint=eastwest;newEdgeStyle={&quot;curved&quot;:0,&quot;rounded&quot;:0};" parent="1" vertex="1">
          <mxGeometry x="840" y="240" width="100" height="2200" as="geometry" />
        </mxCell>
        <mxCell id="G3jogoAw5SwDlib6V-3w-47" value="" style="html=1;points=[[0,0,0,0,5],[0,1,0,0,-5],[1,0,0,0,5],[1,1,0,0,-5]];perimeter=orthogonalPerimeter;outlineConnect=0;targetShapes=umlLifeline;portConstraint=eastwest;newEdgeStyle={&quot;curved&quot;:0,&quot;rounded&quot;:0};" parent="G3jogoAw5SwDlib6V-3w-6" vertex="1">
          <mxGeometry x="45" y="1020" width="10" height="40" as="geometry" />
        </mxCell>
        <mxCell id="G3jogoAw5SwDlib6V-3w-53" value="" style="html=1;points=[[0,0,0,0,5],[0,1,0,0,-5],[1,0,0,0,5],[1,1,0,0,-5]];perimeter=orthogonalPerimeter;outlineConnect=0;targetShapes=umlLifeline;portConstraint=eastwest;newEdgeStyle={&quot;curved&quot;:0,&quot;rounded&quot;:0};" parent="G3jogoAw5SwDlib6V-3w-6" vertex="1">
          <mxGeometry x="45" y="1230" width="10" height="80" as="geometry" />
        </mxCell>
        <mxCell id="Ng8NAmU_FJ0zgmwMVsHG-32" value="" style="shape=umlDestroy;whiteSpace=wrap;html=1;strokeWidth=3;targetShapes=umlLifeline;" parent="G3jogoAw5SwDlib6V-3w-6" vertex="1">
          <mxGeometry x="35" y="2170" width="30" height="30" as="geometry" />
        </mxCell>
        <mxCell id="G3jogoAw5SwDlib6V-3w-7" value="&lt;font style=&quot;font-size: 18px;&quot;&gt;Buy Back&amp;nbsp;&lt;/font&gt;" style="shape=umlLifeline;perimeter=lifelinePerimeter;whiteSpace=wrap;html=1;container=1;dropTarget=0;collapsible=0;recursiveResize=0;outlineConnect=0;portConstraint=eastwest;newEdgeStyle={&quot;curved&quot;:0,&quot;rounded&quot;:0};" parent="1" vertex="1">
          <mxGeometry x="1000" y="240" width="100" height="2200" as="geometry" />
        </mxCell>
        <mxCell id="Ng8NAmU_FJ0zgmwMVsHG-33" value="" style="shape=umlDestroy;whiteSpace=wrap;html=1;strokeWidth=3;targetShapes=umlLifeline;" parent="G3jogoAw5SwDlib6V-3w-7" vertex="1">
          <mxGeometry x="35" y="2170" width="30" height="30" as="geometry" />
        </mxCell>
        <mxCell id="G3jogoAw5SwDlib6V-3w-8" value="&lt;font style=&quot;font-size: 18px;&quot;&gt;Database&lt;/font&gt;" style="shape=umlLifeline;perimeter=lifelinePerimeter;whiteSpace=wrap;html=1;container=1;dropTarget=0;collapsible=0;recursiveResize=0;outlineConnect=0;portConstraint=eastwest;newEdgeStyle={&quot;curved&quot;:0,&quot;rounded&quot;:0};" parent="1" vertex="1">
          <mxGeometry x="1160" y="240" width="100" height="2200" as="geometry" />
        </mxCell>
        <mxCell id="G3jogoAw5SwDlib6V-3w-24" value="" style="html=1;points=[[0,0,0,0,5],[0,1,0,0,-5],[1,0,0,0,5],[1,1,0,0,-5]];perimeter=orthogonalPerimeter;outlineConnect=0;targetShapes=umlLifeline;portConstraint=eastwest;newEdgeStyle={&quot;curved&quot;:0,&quot;rounded&quot;:0};" parent="G3jogoAw5SwDlib6V-3w-8" vertex="1">
          <mxGeometry x="45" y="540" width="10" height="40" as="geometry" />
        </mxCell>
        <mxCell id="Ng8NAmU_FJ0zgmwMVsHG-34" value="" style="shape=umlDestroy;whiteSpace=wrap;html=1;strokeWidth=3;targetShapes=umlLifeline;" parent="G3jogoAw5SwDlib6V-3w-8" vertex="1">
          <mxGeometry x="35" y="2170" width="30" height="30" as="geometry" />
        </mxCell>
        <mxCell id="G3jogoAw5SwDlib6V-3w-10" value="" style="shape=umlLifeline;perimeter=lifelinePerimeter;whiteSpace=wrap;html=1;container=1;dropTarget=0;collapsible=0;recursiveResize=0;outlineConnect=0;portConstraint=eastwest;newEdgeStyle={&quot;curved&quot;:0,&quot;rounded&quot;:0};participant=umlActor;size=80;" parent="1" vertex="1">
          <mxGeometry x="90" y="240" width="40" height="2200" as="geometry" />
        </mxCell>
        <mxCell id="G3jogoAw5SwDlib6V-3w-14" value="" style="html=1;points=[[0,0,0,0,5],[0,1,0,0,-5],[1,0,0,0,5],[1,1,0,0,-5]];perimeter=orthogonalPerimeter;outlineConnect=0;targetShapes=umlLifeline;portConstraint=eastwest;newEdgeStyle={&quot;curved&quot;:0,&quot;rounded&quot;:0};" parent="G3jogoAw5SwDlib6V-3w-10" vertex="1">
          <mxGeometry x="15" y="320" width="10" height="80" as="geometry" />
        </mxCell>
        <mxCell id="G3jogoAw5SwDlib6V-3w-21" value="" style="html=1;points=[[0,0,0,0,5],[0,1,0,0,-5],[1,0,0,0,5],[1,1,0,0,-5]];perimeter=orthogonalPerimeter;outlineConnect=0;targetShapes=umlLifeline;portConstraint=eastwest;newEdgeStyle={&quot;curved&quot;:0,&quot;rounded&quot;:0};" parent="G3jogoAw5SwDlib6V-3w-10" vertex="1">
          <mxGeometry x="15" y="500" width="10" height="80" as="geometry" />
        </mxCell>
        <mxCell id="G3jogoAw5SwDlib6V-3w-27" value="" style="html=1;points=[[0,0,0,0,5],[0,1,0,0,-5],[1,0,0,0,5],[1,1,0,0,-5]];perimeter=orthogonalPerimeter;outlineConnect=0;targetShapes=umlLifeline;portConstraint=eastwest;newEdgeStyle={&quot;curved&quot;:0,&quot;rounded&quot;:0};" parent="G3jogoAw5SwDlib6V-3w-10" vertex="1">
          <mxGeometry x="15" y="660" width="10" height="90" as="geometry" />
        </mxCell>
        <mxCell id="G3jogoAw5SwDlib6V-3w-59" value="" style="html=1;points=[[0,0,0,0,5],[0,1,0,0,-5],[1,0,0,0,5],[1,1,0,0,-5]];perimeter=orthogonalPerimeter;outlineConnect=0;targetShapes=umlLifeline;portConstraint=eastwest;newEdgeStyle={&quot;curved&quot;:0,&quot;rounded&quot;:0};" parent="G3jogoAw5SwDlib6V-3w-10" vertex="1">
          <mxGeometry x="20" y="1970" width="10" height="80" as="geometry" />
        </mxCell>
        <mxCell id="Ng8NAmU_FJ0zgmwMVsHG-20" value="" style="html=1;points=[[0,0,0,0,5],[0,1,0,0,-5],[1,0,0,0,5],[1,1,0,0,-5]];perimeter=orthogonalPerimeter;outlineConnect=0;targetShapes=umlLifeline;portConstraint=eastwest;newEdgeStyle={&quot;curved&quot;:0,&quot;rounded&quot;:0};" parent="G3jogoAw5SwDlib6V-3w-10" vertex="1">
          <mxGeometry x="20" y="1890" width="10" height="40" as="geometry" />
        </mxCell>
        <mxCell id="Ng8NAmU_FJ0zgmwMVsHG-21" value="&lt;font style=&quot;font-size: 14px;&quot;&gt;Send This request&amp;nbsp;&lt;/font&gt;&lt;div&gt;&lt;font size=&quot;3&quot;&gt;to admin for manage&amp;nbsp;&lt;/font&gt;&lt;/div&gt;" style="html=1;align=left;spacingLeft=2;endArrow=block;rounded=0;edgeStyle=orthogonalEdgeStyle;curved=0;rounded=0;" parent="G3jogoAw5SwDlib6V-3w-10" source="G3jogoAw5SwDlib6V-3w-10" target="Ng8NAmU_FJ0zgmwMVsHG-20" edge="1">
          <mxGeometry relative="1" as="geometry">
            <mxPoint x="25" y="1830" as="sourcePoint" />
            <Array as="points">
              <mxPoint x="55" y="1860" />
              <mxPoint x="55" y="1910" />
            </Array>
          </mxGeometry>
        </mxCell>
        <mxCell id="Ng8NAmU_FJ0zgmwMVsHG-27" value="" style="shape=umlDestroy;whiteSpace=wrap;html=1;strokeWidth=3;targetShapes=umlLifeline;" parent="G3jogoAw5SwDlib6V-3w-10" vertex="1">
          <mxGeometry x="5" y="2170" width="30" height="30" as="geometry" />
        </mxCell>
        <mxCell id="G3jogoAw5SwDlib6V-3w-11" value="&lt;font style=&quot;font-size: 18px;&quot;&gt;Seller&lt;/font&gt;" style="text;align=center;fontStyle=1;verticalAlign=middle;spacingLeft=3;spacingRight=3;strokeColor=none;rotatable=0;points=[[0,0.5],[1,0.5]];portConstraint=eastwest;html=1;" parent="1" vertex="1">
          <mxGeometry x="70" y="320" width="80" height="26" as="geometry" />
        </mxCell>
        <mxCell id="G3jogoAw5SwDlib6V-3w-12" value="&lt;font style=&quot;font-size: 14px;&quot;&gt;alt&lt;/font&gt;" style="shape=umlFrame;whiteSpace=wrap;html=1;pointerEvents=0;" parent="1" vertex="1">
          <mxGeometry x="70" y="430" width="1220" height="1960" as="geometry" />
        </mxCell>
        <mxCell id="G3jogoAw5SwDlib6V-3w-13" value="&lt;font style=&quot;font-size: 18px;&quot;&gt;[ if user not exist ]&amp;nbsp;&lt;/font&gt;" style="text;align=center;fontStyle=1;verticalAlign=middle;spacingLeft=3;spacingRight=3;strokeColor=none;rotatable=0;points=[[0,0.5],[1,0.5]];portConstraint=eastwest;html=1;" parent="1" vertex="1">
          <mxGeometry x="150" y="480" width="80" height="26" as="geometry" />
        </mxCell>
        <mxCell id="G3jogoAw5SwDlib6V-3w-15" value="" style="html=1;points=[[0,0,0,0,5],[0,1,0,0,-5],[1,0,0,0,5],[1,1,0,0,-5]];perimeter=orthogonalPerimeter;outlineConnect=0;targetShapes=umlLifeline;portConstraint=eastwest;newEdgeStyle={&quot;curved&quot;:0,&quot;rounded&quot;:0};" parent="1" vertex="1">
          <mxGeometry x="245" y="560" width="10" height="80" as="geometry" />
        </mxCell>
        <mxCell id="G3jogoAw5SwDlib6V-3w-16" value="&lt;font style=&quot;font-size: 18px;&quot;&gt;Registration&amp;nbsp;&lt;/font&gt;" style="html=1;verticalAlign=bottom;endArrow=block;curved=0;rounded=0;" parent="1" edge="1">
          <mxGeometry width="80" relative="1" as="geometry">
            <mxPoint x="110" y="560" as="sourcePoint" />
            <mxPoint x="249.5" y="560" as="targetPoint" />
          </mxGeometry>
        </mxCell>
        <mxCell id="G3jogoAw5SwDlib6V-3w-17" value="" style="html=1;points=[[0,0,0,0,5],[0,1,0,0,-5],[1,0,0,0,5],[1,1,0,0,-5]];perimeter=orthogonalPerimeter;outlineConnect=0;targetShapes=umlLifeline;portConstraint=eastwest;newEdgeStyle={&quot;curved&quot;:0,&quot;rounded&quot;:0};" parent="1" vertex="1">
          <mxGeometry x="1205" y="600" width="10" height="40" as="geometry" />
        </mxCell>
        <mxCell id="G3jogoAw5SwDlib6V-3w-18" value="&lt;font style=&quot;font-size: 18px;&quot;&gt;save&lt;/font&gt;" style="html=1;verticalAlign=bottom;endArrow=block;curved=0;rounded=0;" parent="1" edge="1">
          <mxGeometry width="80" relative="1" as="geometry">
            <mxPoint x="245" y="600" as="sourcePoint" />
            <mxPoint x="1209.5" y="600" as="targetPoint" />
          </mxGeometry>
        </mxCell>
        <mxCell id="G3jogoAw5SwDlib6V-3w-19" value="&lt;font style=&quot;font-size: 18px;&quot;&gt;return&lt;/font&gt;" style="html=1;verticalAlign=bottom;endArrow=open;dashed=1;endSize=8;curved=0;rounded=0;" parent="1" edge="1">
          <mxGeometry relative="1" as="geometry">
            <mxPoint x="1205" y="638.95" as="sourcePoint" />
            <mxPoint x="250" y="639" as="targetPoint" />
          </mxGeometry>
        </mxCell>
        <mxCell id="G3jogoAw5SwDlib6V-3w-20" value="&lt;font style=&quot;font-size: 18px;&quot;&gt;[ else user exist ]&lt;/font&gt;" style="text;align=center;fontStyle=1;verticalAlign=middle;spacingLeft=3;spacingRight=3;strokeColor=none;rotatable=0;points=[[0,0.5],[1,0.5]];portConstraint=eastwest;html=1;" parent="1" vertex="1">
          <mxGeometry x="150" y="670" width="80" height="26" as="geometry" />
        </mxCell>
        <mxCell id="G3jogoAw5SwDlib6V-3w-22" value="" style="html=1;points=[[0,0,0,0,5],[0,1,0,0,-5],[1,0,0,0,5],[1,1,0,0,-5]];perimeter=orthogonalPerimeter;outlineConnect=0;targetShapes=umlLifeline;portConstraint=eastwest;newEdgeStyle={&quot;curved&quot;:0,&quot;rounded&quot;:0};" parent="1" vertex="1">
          <mxGeometry x="245" y="740" width="10" height="80" as="geometry" />
        </mxCell>
        <mxCell id="G3jogoAw5SwDlib6V-3w-23" value="&lt;font style=&quot;font-size: 18px;&quot;&gt;Login&amp;nbsp;&lt;/font&gt;" style="html=1;verticalAlign=bottom;endArrow=block;curved=0;rounded=0;" parent="1" edge="1">
          <mxGeometry width="80" relative="1" as="geometry">
            <mxPoint x="110" y="740" as="sourcePoint" />
            <mxPoint x="249.5" y="740" as="targetPoint" />
          </mxGeometry>
        </mxCell>
        <mxCell id="G3jogoAw5SwDlib6V-3w-25" value="&lt;font style=&quot;font-size: 18px;&quot;&gt;check&lt;/font&gt;&amp;nbsp;" style="html=1;verticalAlign=bottom;endArrow=block;curved=0;rounded=0;" parent="1" target="G3jogoAw5SwDlib6V-3w-24" edge="1">
          <mxGeometry width="80" relative="1" as="geometry">
            <mxPoint x="255" y="780" as="sourcePoint" />
            <mxPoint x="335" y="780" as="targetPoint" />
          </mxGeometry>
        </mxCell>
        <mxCell id="G3jogoAw5SwDlib6V-3w-26" value="&lt;font style=&quot;font-size: 18px;&quot;&gt;return&lt;/font&gt;" style="html=1;verticalAlign=bottom;endArrow=open;dashed=1;endSize=8;curved=0;rounded=0;" parent="1" edge="1">
          <mxGeometry relative="1" as="geometry">
            <mxPoint x="1205" y="820" as="sourcePoint" />
            <mxPoint x="255" y="820" as="targetPoint" />
          </mxGeometry>
        </mxCell>
        <mxCell id="G3jogoAw5SwDlib6V-3w-28" value="" style="html=1;points=[[0,0,0,0,5],[0,1,0,0,-5],[1,0,0,0,5],[1,1,0,0,-5]];perimeter=orthogonalPerimeter;outlineConnect=0;targetShapes=umlLifeline;portConstraint=eastwest;newEdgeStyle={&quot;curved&quot;:0,&quot;rounded&quot;:0};" parent="1" vertex="1">
          <mxGeometry x="245" y="900" width="10" height="80" as="geometry" />
        </mxCell>
        <mxCell id="G3jogoAw5SwDlib6V-3w-29" value="&lt;font style=&quot;font-size: 18px;&quot;&gt;Manage Profile&lt;/font&gt;&lt;div&gt;&lt;font size=&quot;3&quot;&gt;( view / edit )&lt;/font&gt;&lt;/div&gt;" style="html=1;verticalAlign=bottom;endArrow=block;curved=0;rounded=0;" parent="1" edge="1">
          <mxGeometry x="-0.0005" width="80" relative="1" as="geometry">
            <mxPoint x="110" y="900" as="sourcePoint" />
            <mxPoint x="249.5" y="900" as="targetPoint" />
            <mxPoint as="offset" />
          </mxGeometry>
        </mxCell>
        <mxCell id="G3jogoAw5SwDlib6V-3w-30" value="" style="html=1;points=[[0,0,0,0,5],[0,1,0,0,-5],[1,0,0,0,5],[1,1,0,0,-5]];perimeter=orthogonalPerimeter;outlineConnect=0;targetShapes=umlLifeline;portConstraint=eastwest;newEdgeStyle={&quot;curved&quot;:0,&quot;rounded&quot;:0};" parent="1" vertex="1">
          <mxGeometry x="1205" y="940" width="10" height="40" as="geometry" />
        </mxCell>
        <mxCell id="G3jogoAw5SwDlib6V-3w-31" value="&lt;font style=&quot;font-size: 18px;&quot;&gt;save changes&amp;nbsp;&lt;/font&gt;" style="html=1;verticalAlign=bottom;endArrow=block;curved=0;rounded=0;" parent="1" edge="1">
          <mxGeometry width="80" relative="1" as="geometry">
            <mxPoint x="255" y="939.43" as="sourcePoint" />
            <mxPoint x="1209.5" y="939.4299999999998" as="targetPoint" />
          </mxGeometry>
        </mxCell>
        <mxCell id="G3jogoAw5SwDlib6V-3w-32" value="&lt;font style=&quot;font-size: 18px;&quot;&gt;return&lt;/font&gt;" style="html=1;verticalAlign=bottom;endArrow=open;dashed=1;endSize=8;curved=0;rounded=0;" parent="1" edge="1">
          <mxGeometry relative="1" as="geometry">
            <mxPoint x="1205" y="979.71" as="sourcePoint" />
            <mxPoint x="249.25000000000023" y="979.71" as="targetPoint" />
          </mxGeometry>
        </mxCell>
        <mxCell id="G3jogoAw5SwDlib6V-3w-33" value="&lt;font style=&quot;font-size: 18px;&quot;&gt;Return&lt;/font&gt;" style="html=1;verticalAlign=bottom;endArrow=open;dashed=1;endSize=8;curved=0;rounded=0;" parent="1" source="G3jogoAw5SwDlib6V-3w-28" edge="1">
          <mxGeometry relative="1" as="geometry">
            <mxPoint x="190" y="979.71" as="sourcePoint" />
            <mxPoint x="110" y="979.71" as="targetPoint" />
          </mxGeometry>
        </mxCell>
        <mxCell id="G3jogoAw5SwDlib6V-3w-35" value="" style="html=1;points=[[0,0,0,0,5],[0,1,0,0,-5],[1,0,0,0,5],[1,1,0,0,-5]];perimeter=orthogonalPerimeter;outlineConnect=0;targetShapes=umlLifeline;portConstraint=eastwest;newEdgeStyle={&quot;curved&quot;:0,&quot;rounded&quot;:0};" parent="1" vertex="1">
          <mxGeometry x="105" y="1040" width="10" height="80" as="geometry" />
        </mxCell>
        <mxCell id="G3jogoAw5SwDlib6V-3w-37" value="&lt;font style=&quot;font-size: 18px;&quot;&gt;Manage Product ( Add , Update , Delete )&lt;/font&gt;" style="html=1;verticalAlign=bottom;endArrow=block;curved=0;rounded=0;" parent="1" edge="1">
          <mxGeometry width="80" relative="1" as="geometry">
            <mxPoint x="115" y="1040" as="sourcePoint" />
            <mxPoint x="409.5" y="1040" as="targetPoint" />
          </mxGeometry>
        </mxCell>
        <mxCell id="G3jogoAw5SwDlib6V-3w-38" value="" style="html=1;points=[[0,0,0,0,5],[0,1,0,0,-5],[1,0,0,0,5],[1,1,0,0,-5]];perimeter=orthogonalPerimeter;outlineConnect=0;targetShapes=umlLifeline;portConstraint=eastwest;newEdgeStyle={&quot;curved&quot;:0,&quot;rounded&quot;:0};" parent="1" vertex="1">
          <mxGeometry x="1205" y="1080" width="10" height="40" as="geometry" />
        </mxCell>
        <mxCell id="G3jogoAw5SwDlib6V-3w-39" value="&lt;font style=&quot;font-size: 18px;&quot;&gt;save changes&amp;nbsp;&lt;/font&gt;" style="html=1;verticalAlign=bottom;endArrow=block;curved=0;rounded=0;" parent="1" edge="1">
          <mxGeometry width="80" relative="1" as="geometry">
            <mxPoint x="412.5" y="1079.86" as="sourcePoint" />
            <mxPoint x="1209.5" y="1079.86" as="targetPoint" />
          </mxGeometry>
        </mxCell>
        <mxCell id="G3jogoAw5SwDlib6V-3w-40" value="&lt;font style=&quot;font-size: 18px;&quot;&gt;return&lt;/font&gt;" style="html=1;verticalAlign=bottom;endArrow=open;dashed=1;endSize=8;curved=0;rounded=0;" parent="1" edge="1">
          <mxGeometry relative="1" as="geometry">
            <mxPoint x="1205" y="1119.71" as="sourcePoint" />
            <mxPoint x="410" y="1120" as="targetPoint" />
          </mxGeometry>
        </mxCell>
        <mxCell id="G3jogoAw5SwDlib6V-3w-41" value="&lt;font style=&quot;font-size: 18px;&quot;&gt;return&lt;/font&gt;" style="html=1;verticalAlign=bottom;endArrow=open;dashed=1;endSize=8;curved=0;rounded=0;" parent="1" source="G3jogoAw5SwDlib6V-3w-36" edge="1">
          <mxGeometry relative="1" as="geometry">
            <mxPoint x="250" y="1120.29" as="sourcePoint" />
            <mxPoint x="115" y="1120" as="targetPoint" />
          </mxGeometry>
        </mxCell>
        <mxCell id="G3jogoAw5SwDlib6V-3w-42" value="" style="html=1;points=[[0,0,0,0,5],[0,1,0,0,-5],[1,0,0,0,5],[1,1,0,0,-5]];perimeter=orthogonalPerimeter;outlineConnect=0;targetShapes=umlLifeline;portConstraint=eastwest;newEdgeStyle={&quot;curved&quot;:0,&quot;rounded&quot;:0};" parent="1" vertex="1">
          <mxGeometry x="105" y="1170" width="10" height="40" as="geometry" />
        </mxCell>
        <mxCell id="G3jogoAw5SwDlib6V-3w-43" value="" style="html=1;points=[[0,0,0,0,5],[0,1,0,0,-5],[1,0,0,0,5],[1,1,0,0,-5]];perimeter=orthogonalPerimeter;outlineConnect=0;targetShapes=umlLifeline;portConstraint=eastwest;newEdgeStyle={&quot;curved&quot;:0,&quot;rounded&quot;:0};" parent="1" vertex="1">
          <mxGeometry x="565" y="1170" width="10" height="40" as="geometry" />
        </mxCell>
        <mxCell id="G3jogoAw5SwDlib6V-3w-44" value="&lt;font style=&quot;font-size: 18px;&quot;&gt;View Orders&lt;/font&gt;" style="html=1;verticalAlign=bottom;endArrow=block;curved=0;rounded=0;" parent="1" edge="1">
          <mxGeometry width="80" relative="1" as="geometry">
            <mxPoint x="115" y="1170" as="sourcePoint" />
            <mxPoint x="569.5" y="1170" as="targetPoint" />
          </mxGeometry>
        </mxCell>
        <mxCell id="G3jogoAw5SwDlib6V-3w-45" value="&lt;font style=&quot;font-size: 18px;&quot;&gt;return&lt;/font&gt;" style="html=1;verticalAlign=bottom;endArrow=open;dashed=1;endSize=8;curved=0;rounded=0;" parent="1" source="G3jogoAw5SwDlib6V-3w-43" edge="1">
          <mxGeometry relative="1" as="geometry">
            <mxPoint x="195" y="1208.95" as="sourcePoint" />
            <mxPoint x="115" y="1208.95" as="targetPoint" />
          </mxGeometry>
        </mxCell>
        <mxCell id="G3jogoAw5SwDlib6V-3w-46" value="" style="html=1;points=[[0,0,0,0,5],[0,1,0,0,-5],[1,0,0,0,5],[1,1,0,0,-5]];perimeter=orthogonalPerimeter;outlineConnect=0;targetShapes=umlLifeline;portConstraint=eastwest;newEdgeStyle={&quot;curved&quot;:0,&quot;rounded&quot;:0};" parent="1" vertex="1">
          <mxGeometry x="105" y="1260" width="10" height="40" as="geometry" />
        </mxCell>
        <mxCell id="G3jogoAw5SwDlib6V-3w-48" value="&lt;font style=&quot;font-size: 18px;&quot;&gt;Request For Reslling Products to Admin&amp;nbsp;&lt;/font&gt;" style="html=1;verticalAlign=bottom;endArrow=block;curved=0;rounded=0;" parent="1" edge="1">
          <mxGeometry width="80" relative="1" as="geometry">
            <mxPoint x="115" y="1260" as="sourcePoint" />
            <mxPoint x="889.5" y="1260" as="targetPoint" />
          </mxGeometry>
        </mxCell>
        <mxCell id="G3jogoAw5SwDlib6V-3w-50" value="&lt;font style=&quot;font-size: 18px;&quot;&gt;return&lt;/font&gt;" style="html=1;verticalAlign=bottom;endArrow=open;dashed=1;endSize=8;curved=0;rounded=0;" parent="1" edge="1">
          <mxGeometry relative="1" as="geometry">
            <mxPoint x="890" y="1299.6" as="sourcePoint" />
            <mxPoint x="109.25000000000023" y="1299.6000000000001" as="targetPoint" />
          </mxGeometry>
        </mxCell>
        <mxCell id="G3jogoAw5SwDlib6V-3w-52" value="" style="html=1;points=[[0,0,0,0,5],[0,1,0,0,-5],[1,0,0,0,5],[1,1,0,0,-5]];perimeter=orthogonalPerimeter;outlineConnect=0;targetShapes=umlLifeline;portConstraint=eastwest;newEdgeStyle={&quot;curved&quot;:0,&quot;rounded&quot;:0};" parent="1" vertex="1">
          <mxGeometry x="105" y="1470" width="10" height="80" as="geometry" />
        </mxCell>
        <mxCell id="G3jogoAw5SwDlib6V-3w-54" value="&lt;font style=&quot;font-size: 18px;&quot;&gt;Manage Reselling Products ( Update , Delete )&amp;nbsp;&lt;/font&gt;" style="html=1;verticalAlign=bottom;endArrow=block;curved=0;rounded=0;" parent="1" target="G3jogoAw5SwDlib6V-3w-53" edge="1">
          <mxGeometry width="80" relative="1" as="geometry">
            <mxPoint x="115" y="1470" as="sourcePoint" />
            <mxPoint x="195" y="1470" as="targetPoint" />
          </mxGeometry>
        </mxCell>
        <mxCell id="G3jogoAw5SwDlib6V-3w-55" value="" style="html=1;points=[[0,0,0,0,5],[0,1,0,0,-5],[1,0,0,0,5],[1,1,0,0,-5]];perimeter=orthogonalPerimeter;outlineConnect=0;targetShapes=umlLifeline;portConstraint=eastwest;newEdgeStyle={&quot;curved&quot;:0,&quot;rounded&quot;:0};" parent="1" vertex="1">
          <mxGeometry x="1205" y="1510" width="10" height="40" as="geometry" />
        </mxCell>
        <mxCell id="G3jogoAw5SwDlib6V-3w-56" value="&lt;font style=&quot;font-size: 18px;&quot;&gt;Save&lt;/font&gt;" style="html=1;verticalAlign=bottom;endArrow=block;curved=0;rounded=0;" parent="1" edge="1">
          <mxGeometry width="80" relative="1" as="geometry">
            <mxPoint x="890" y="1509.6" as="sourcePoint" />
            <mxPoint x="1209.5" y="1509.6" as="targetPoint" />
          </mxGeometry>
        </mxCell>
        <mxCell id="G3jogoAw5SwDlib6V-3w-57" value="&lt;font style=&quot;font-size: 18px;&quot;&gt;return&lt;/font&gt;" style="html=1;verticalAlign=bottom;endArrow=open;dashed=1;endSize=8;curved=0;rounded=0;" parent="1" edge="1">
          <mxGeometry relative="1" as="geometry">
            <mxPoint x="1205" y="1550" as="sourcePoint" />
            <mxPoint x="889.5" y="1550" as="targetPoint" />
          </mxGeometry>
        </mxCell>
        <mxCell id="G3jogoAw5SwDlib6V-3w-58" value="&lt;font style=&quot;font-size: 18px;&quot;&gt;Display Changes Apply Successfully&lt;/font&gt;" style="html=1;verticalAlign=bottom;endArrow=open;dashed=1;endSize=8;curved=0;rounded=0;" parent="1" edge="1">
          <mxGeometry relative="1" as="geometry">
            <mxPoint x="890" y="1549.2" as="sourcePoint" />
            <mxPoint x="109.5" y="1549.2" as="targetPoint" />
          </mxGeometry>
        </mxCell>
        <mxCell id="G3jogoAw5SwDlib6V-3w-61" value="&lt;font style=&quot;font-size: 18px;&quot;&gt;Manage Payment&amp;nbsp;&lt;/font&gt;" style="html=1;verticalAlign=bottom;endArrow=block;curved=0;rounded=0;" parent="1" edge="1">
          <mxGeometry width="80" relative="1" as="geometry">
            <mxPoint x="120" y="2210" as="sourcePoint" />
            <mxPoint x="734.5" y="2210" as="targetPoint" />
          </mxGeometry>
        </mxCell>
        <mxCell id="G3jogoAw5SwDlib6V-3w-64" value="&lt;font style=&quot;font-size: 18px;&quot;&gt;return&lt;/font&gt;" style="html=1;verticalAlign=bottom;endArrow=open;dashed=1;endSize=8;curved=0;rounded=0;" parent="1" edge="1">
          <mxGeometry relative="1" as="geometry">
            <mxPoint x="730.5" y="2290" as="sourcePoint" />
            <mxPoint x="115" y="2290" as="targetPoint" />
          </mxGeometry>
        </mxCell>
        <mxCell id="G3jogoAw5SwDlib6V-3w-74" value="" style="html=1;points=[[0,0,0,0,5],[0,1,0,0,-5],[1,0,0,0,5],[1,1,0,0,-5]];perimeter=orthogonalPerimeter;outlineConnect=0;targetShapes=umlLifeline;portConstraint=eastwest;newEdgeStyle={&quot;curved&quot;:0,&quot;rounded&quot;:0};" parent="1" vertex="1">
          <mxGeometry x="110" y="2330" width="10" height="40" as="geometry" />
        </mxCell>
        <mxCell id="G3jogoAw5SwDlib6V-3w-75" value="" style="html=1;points=[[0,0,0,0,5],[0,1,0,0,-5],[1,0,0,0,5],[1,1,0,0,-5]];perimeter=orthogonalPerimeter;outlineConnect=0;targetShapes=umlLifeline;portConstraint=eastwest;newEdgeStyle={&quot;curved&quot;:0,&quot;rounded&quot;:0};" parent="1" vertex="1">
          <mxGeometry x="250" y="2330" width="10" height="40" as="geometry" />
        </mxCell>
        <mxCell id="G3jogoAw5SwDlib6V-3w-76" value="&lt;font style=&quot;font-size: 18px;&quot;&gt;Logout&lt;/font&gt;" style="html=1;verticalAlign=bottom;endArrow=block;curved=0;rounded=0;" parent="1" target="G3jogoAw5SwDlib6V-3w-75" edge="1">
          <mxGeometry width="80" relative="1" as="geometry">
            <mxPoint x="110" y="2330" as="sourcePoint" />
            <mxPoint x="239.5" y="2330" as="targetPoint" />
          </mxGeometry>
        </mxCell>
        <mxCell id="G3jogoAw5SwDlib6V-3w-77" value="&lt;font style=&quot;font-size: 18px;&quot;&gt;return&lt;/font&gt;" style="html=1;verticalAlign=bottom;endArrow=open;dashed=1;endSize=8;curved=0;rounded=0;" parent="1" edge="1">
          <mxGeometry relative="1" as="geometry">
            <mxPoint x="254.5" y="2369.5" as="sourcePoint" />
            <mxPoint x="120" y="2369.5" as="targetPoint" />
          </mxGeometry>
        </mxCell>
        <mxCell id="9tcAmHAzB1ku4BKzbsAg-1" value="&lt;font style=&quot;font-size: 18px;&quot;&gt;return&lt;/font&gt;" style="html=1;verticalAlign=bottom;endArrow=open;dashed=1;endSize=8;curved=0;rounded=0;" parent="1" edge="1">
          <mxGeometry relative="1" as="geometry">
            <mxPoint x="245" y="640" as="sourcePoint" />
            <mxPoint x="109.25000000000023" y="640" as="targetPoint" />
          </mxGeometry>
        </mxCell>
        <mxCell id="9tcAmHAzB1ku4BKzbsAg-2" value="&lt;font style=&quot;font-size: 18px;&quot;&gt;return&lt;/font&gt;" style="html=1;verticalAlign=bottom;endArrow=open;dashed=1;endSize=8;curved=0;rounded=0;" parent="1" edge="1">
          <mxGeometry relative="1" as="geometry">
            <mxPoint x="240" y="820" as="sourcePoint" />
            <mxPoint x="109.25000000000023" y="820" as="targetPoint" />
          </mxGeometry>
        </mxCell>
        <mxCell id="9tcAmHAzB1ku4BKzbsAg-5" value="" style="html=1;points=[[0,0,0,0,5],[0,1,0,0,-5],[1,0,0,0,5],[1,1,0,0,-5]];perimeter=orthogonalPerimeter;outlineConnect=0;targetShapes=umlLifeline;portConstraint=eastwest;newEdgeStyle={&quot;curved&quot;:0,&quot;rounded&quot;:0};" parent="1" vertex="1">
          <mxGeometry x="105" y="1340" width="10" height="80" as="geometry" />
        </mxCell>
        <mxCell id="9tcAmHAzB1ku4BKzbsAg-6" value="" style="html=1;points=[[0,0,0,0,5],[0,1,0,0,-5],[1,0,0,0,5],[1,1,0,0,-5]];perimeter=orthogonalPerimeter;outlineConnect=0;targetShapes=umlLifeline;portConstraint=eastwest;newEdgeStyle={&quot;curved&quot;:0,&quot;rounded&quot;:0};" parent="1" vertex="1">
          <mxGeometry x="885" y="1340" width="10" height="80" as="geometry" />
        </mxCell>
        <mxCell id="9tcAmHAzB1ku4BKzbsAg-7" value="&lt;font style=&quot;font-size: 18px;&quot;&gt;Add Product ( if approve request )&lt;/font&gt;" style="html=1;verticalAlign=bottom;endArrow=block;curved=0;rounded=0;" parent="1" edge="1">
          <mxGeometry width="80" relative="1" as="geometry">
            <mxPoint x="115" y="1340" as="sourcePoint" />
            <mxPoint x="889.5" y="1340" as="targetPoint" />
          </mxGeometry>
        </mxCell>
        <mxCell id="9tcAmHAzB1ku4BKzbsAg-8" value="" style="html=1;points=[[0,0,0,0,5],[0,1,0,0,-5],[1,0,0,0,5],[1,1,0,0,-5]];perimeter=orthogonalPerimeter;outlineConnect=0;targetShapes=umlLifeline;portConstraint=eastwest;newEdgeStyle={&quot;curved&quot;:0,&quot;rounded&quot;:0};" parent="1" vertex="1">
          <mxGeometry x="1205" y="1380" width="10" height="40" as="geometry" />
        </mxCell>
        <mxCell id="9tcAmHAzB1ku4BKzbsAg-9" value="&lt;font style=&quot;font-size: 18px;&quot;&gt;Save&amp;nbsp;&lt;/font&gt;" style="html=1;verticalAlign=bottom;endArrow=block;curved=0;rounded=0;" parent="1" edge="1">
          <mxGeometry width="80" relative="1" as="geometry">
            <mxPoint x="895" y="1380" as="sourcePoint" />
            <mxPoint x="1209.5" y="1380" as="targetPoint" />
          </mxGeometry>
        </mxCell>
        <mxCell id="9tcAmHAzB1ku4BKzbsAg-10" value="&lt;font style=&quot;font-size: 18px;&quot;&gt;return&lt;/font&gt;" style="html=1;verticalAlign=bottom;endArrow=open;dashed=1;endSize=8;curved=0;rounded=0;" parent="1" edge="1">
          <mxGeometry relative="1" as="geometry">
            <mxPoint x="1205" y="1420" as="sourcePoint" />
            <mxPoint x="889.25" y="1420" as="targetPoint" />
          </mxGeometry>
        </mxCell>
        <mxCell id="9tcAmHAzB1ku4BKzbsAg-11" value="&lt;font style=&quot;font-size: 18px;&quot;&gt;return&lt;/font&gt;" style="html=1;verticalAlign=bottom;endArrow=open;dashed=1;endSize=8;curved=0;rounded=0;" parent="1" edge="1">
          <mxGeometry relative="1" as="geometry">
            <mxPoint x="885" y="1419" as="sourcePoint" />
            <mxPoint x="109.25000000000023" y="1419" as="targetPoint" />
          </mxGeometry>
        </mxCell>
        <mxCell id="9tcAmHAzB1ku4BKzbsAg-12" value="" style="html=1;points=[[0,0,0,0,5],[0,1,0,0,-5],[1,0,0,0,5],[1,1,0,0,-5]];perimeter=orthogonalPerimeter;outlineConnect=0;targetShapes=umlLifeline;portConstraint=eastwest;newEdgeStyle={&quot;curved&quot;:0,&quot;rounded&quot;:0};" parent="1" vertex="1">
          <mxGeometry x="105" y="1600" width="10" height="80" as="geometry" />
        </mxCell>
        <mxCell id="9tcAmHAzB1ku4BKzbsAg-13" value="" style="html=1;points=[[0,0,0,0,5],[0,1,0,0,-5],[1,0,0,0,5],[1,1,0,0,-5]];perimeter=orthogonalPerimeter;outlineConnect=0;targetShapes=umlLifeline;portConstraint=eastwest;newEdgeStyle={&quot;curved&quot;:0,&quot;rounded&quot;:0};" parent="1" vertex="1">
          <mxGeometry x="1045" y="1600" width="10" height="80" as="geometry" />
        </mxCell>
        <mxCell id="9tcAmHAzB1ku4BKzbsAg-14" value="&lt;font style=&quot;font-size: 18px;&quot;&gt;Manage Buy Back ( add , edit )&lt;/font&gt;" style="html=1;verticalAlign=bottom;endArrow=block;curved=0;rounded=0;" parent="1" edge="1">
          <mxGeometry width="80" relative="1" as="geometry">
            <mxPoint x="110" y="1600" as="sourcePoint" />
            <mxPoint x="1049.5" y="1600" as="targetPoint" />
          </mxGeometry>
        </mxCell>
        <mxCell id="9tcAmHAzB1ku4BKzbsAg-15" value="" style="html=1;points=[[0,0,0,0,5],[0,1,0,0,-5],[1,0,0,0,5],[1,1,0,0,-5]];perimeter=orthogonalPerimeter;outlineConnect=0;targetShapes=umlLifeline;portConstraint=eastwest;newEdgeStyle={&quot;curved&quot;:0,&quot;rounded&quot;:0};" parent="1" vertex="1">
          <mxGeometry x="1205" y="1640" width="10" height="40" as="geometry" />
        </mxCell>
        <mxCell id="9tcAmHAzB1ku4BKzbsAg-16" value="&lt;font style=&quot;font-size: 18px;&quot;&gt;Save&lt;/font&gt;" style="html=1;verticalAlign=bottom;endArrow=block;curved=0;rounded=0;" parent="1" edge="1">
          <mxGeometry width="80" relative="1" as="geometry">
            <mxPoint x="1055" y="1639" as="sourcePoint" />
            <mxPoint x="1209.5" y="1639" as="targetPoint" />
          </mxGeometry>
        </mxCell>
        <mxCell id="9tcAmHAzB1ku4BKzbsAg-18" value="&lt;font style=&quot;font-size: 18px;&quot;&gt;return&lt;/font&gt;" style="html=1;verticalAlign=bottom;endArrow=open;dashed=1;endSize=8;curved=0;rounded=0;" parent="1" edge="1">
          <mxGeometry relative="1" as="geometry">
            <mxPoint x="1205" y="1679" as="sourcePoint" />
            <mxPoint x="1049.0714285714284" y="1679" as="targetPoint" />
          </mxGeometry>
        </mxCell>
        <mxCell id="9tcAmHAzB1ku4BKzbsAg-19" value="&lt;span style=&quot;font-size: 18px;&quot;&gt;return&lt;/span&gt;" style="html=1;verticalAlign=bottom;endArrow=open;dashed=1;endSize=8;curved=0;rounded=0;" parent="1" edge="1">
          <mxGeometry relative="1" as="geometry">
            <mxPoint x="1055" y="1679" as="sourcePoint" />
            <mxPoint x="109.07142857142844" y="1679" as="targetPoint" />
          </mxGeometry>
        </mxCell>
        <mxCell id="9tcAmHAzB1ku4BKzbsAg-20" value="" style="html=1;points=[[0,0,0,0,5],[0,1,0,0,-5],[1,0,0,0,5],[1,1,0,0,-5]];perimeter=orthogonalPerimeter;outlineConnect=0;targetShapes=umlLifeline;portConstraint=eastwest;newEdgeStyle={&quot;curved&quot;:0,&quot;rounded&quot;:0};" parent="1" vertex="1">
          <mxGeometry x="105" y="1720" width="10" height="20" as="geometry" />
        </mxCell>
        <mxCell id="9tcAmHAzB1ku4BKzbsAg-21" value="" style="html=1;points=[[0,0,0,0,5],[0,1,0,0,-5],[1,0,0,0,5],[1,1,0,0,-5]];perimeter=orthogonalPerimeter;outlineConnect=0;targetShapes=umlLifeline;portConstraint=eastwest;newEdgeStyle={&quot;curved&quot;:0,&quot;rounded&quot;:0};" parent="1" vertex="1">
          <mxGeometry x="1045" y="1720" width="10" height="20" as="geometry" />
        </mxCell>
        <mxCell id="9tcAmHAzB1ku4BKzbsAg-22" value="&lt;font style=&quot;font-size: 18px;&quot;&gt;Manage Buy Back Request&amp;nbsp;&lt;/font&gt;" style="html=1;verticalAlign=bottom;endArrow=block;curved=0;rounded=0;" parent="1" edge="1">
          <mxGeometry width="80" relative="1" as="geometry">
            <mxPoint x="115" y="1720" as="sourcePoint" />
            <mxPoint x="1049.5" y="1720" as="targetPoint" />
          </mxGeometry>
        </mxCell>
        <mxCell id="9tcAmHAzB1ku4BKzbsAg-23" value="&lt;font style=&quot;font-size: 14px;&quot;&gt;alt&amp;nbsp;&lt;/font&gt;" style="shape=umlFrame;whiteSpace=wrap;html=1;pointerEvents=0;" parent="1" vertex="1">
          <mxGeometry x="90" y="1740" width="1190" height="440" as="geometry" />
        </mxCell>
        <mxCell id="9tcAmHAzB1ku4BKzbsAg-24" value="&lt;font style=&quot;font-size: 18px;&quot;&gt;[ if request == buy ]&lt;/font&gt;" style="text;align=center;fontStyle=1;verticalAlign=middle;spacingLeft=3;spacingRight=3;strokeColor=none;rotatable=0;points=[[0,0.5],[1,0.5]];portConstraint=eastwest;html=1;" parent="1" vertex="1">
          <mxGeometry x="200" y="1747" width="80" height="26" as="geometry" />
        </mxCell>
        <mxCell id="9tcAmHAzB1ku4BKzbsAg-25" value="" style="html=1;points=[[0,0,0,0,5],[0,1,0,0,-5],[1,0,0,0,5],[1,1,0,0,-5]];perimeter=orthogonalPerimeter;outlineConnect=0;targetShapes=umlLifeline;portConstraint=eastwest;newEdgeStyle={&quot;curved&quot;:0,&quot;rounded&quot;:0};" parent="1" vertex="1">
          <mxGeometry x="105" y="1840" width="10" height="40" as="geometry" />
        </mxCell>
        <mxCell id="Ng8NAmU_FJ0zgmwMVsHG-10" value="&lt;font style=&quot;font-size: 18px;&quot;&gt;View Customization Detailes&lt;/font&gt;" style="html=1;verticalAlign=bottom;endArrow=block;curved=0;rounded=0;" parent="1" edge="1" target="2cCDK_9BDTkygWFoT9Ya-1">
          <mxGeometry width="80" relative="1" as="geometry">
            <mxPoint x="120" y="1840" as="sourcePoint" />
            <mxPoint x="1339.5" y="1840" as="targetPoint" />
          </mxGeometry>
        </mxCell>
        <mxCell id="Ng8NAmU_FJ0zgmwMVsHG-12" value="" style="html=1;points=[[0,0,0,0,5],[0,1,0,0,-5],[1,0,0,0,5],[1,1,0,0,-5]];perimeter=orthogonalPerimeter;outlineConnect=0;targetShapes=umlLifeline;portConstraint=eastwest;newEdgeStyle={&quot;curved&quot;:0,&quot;rounded&quot;:0};" parent="1" vertex="1">
          <mxGeometry x="105" y="1920" width="10" height="80" as="geometry" />
        </mxCell>
        <mxCell id="Ng8NAmU_FJ0zgmwMVsHG-13" value="" style="html=1;points=[[0,0,0,0,5],[0,1,0,0,-5],[1,0,0,0,5],[1,1,0,0,-5]];perimeter=orthogonalPerimeter;outlineConnect=0;targetShapes=umlLifeline;portConstraint=eastwest;newEdgeStyle={&quot;curved&quot;:0,&quot;rounded&quot;:0};" parent="1" vertex="1">
          <mxGeometry x="1045" y="1920" width="10" height="80" as="geometry" />
        </mxCell>
        <mxCell id="Ng8NAmU_FJ0zgmwMVsHG-14" value="&lt;font style=&quot;font-size: 18px;&quot;&gt;Aprrove / reject the request and update status&lt;/font&gt;" style="html=1;verticalAlign=bottom;endArrow=block;curved=0;rounded=0;" parent="1" edge="1">
          <mxGeometry width="80" relative="1" as="geometry">
            <mxPoint x="120" y="1920" as="sourcePoint" />
            <mxPoint x="1049.5" y="1920" as="targetPoint" />
          </mxGeometry>
        </mxCell>
        <mxCell id="Ng8NAmU_FJ0zgmwMVsHG-15" value="" style="html=1;points=[[0,0,0,0,5],[0,1,0,0,-5],[1,0,0,0,5],[1,1,0,0,-5]];perimeter=orthogonalPerimeter;outlineConnect=0;targetShapes=umlLifeline;portConstraint=eastwest;newEdgeStyle={&quot;curved&quot;:0,&quot;rounded&quot;:0};" parent="1" vertex="1">
          <mxGeometry x="1205" y="1960" width="10" height="40" as="geometry" />
        </mxCell>
        <mxCell id="Ng8NAmU_FJ0zgmwMVsHG-16" value="&lt;font style=&quot;font-size: 18px;&quot;&gt;Save&lt;/font&gt;" style="html=1;verticalAlign=bottom;endArrow=block;curved=0;rounded=0;" parent="1" edge="1">
          <mxGeometry width="80" relative="1" as="geometry">
            <mxPoint x="1049.0714285714284" y="1958.8900000000003" as="sourcePoint" />
            <mxPoint x="1205" y="1958.89" as="targetPoint" />
          </mxGeometry>
        </mxCell>
        <mxCell id="Ng8NAmU_FJ0zgmwMVsHG-17" value="&lt;font style=&quot;font-size: 18px;&quot;&gt;return&lt;/font&gt;" style="html=1;verticalAlign=bottom;endArrow=open;dashed=1;endSize=8;curved=0;rounded=0;" parent="1" target="Ng8NAmU_FJ0zgmwMVsHG-13" edge="1">
          <mxGeometry relative="1" as="geometry">
            <mxPoint x="1205" y="1998.89" as="sourcePoint" />
            <mxPoint x="1125" y="1998.89" as="targetPoint" />
          </mxGeometry>
        </mxCell>
        <mxCell id="Ng8NAmU_FJ0zgmwMVsHG-18" value="&lt;font style=&quot;font-size: 18px;&quot;&gt;return&lt;/font&gt;" style="html=1;verticalAlign=bottom;endArrow=open;dashed=1;endSize=8;curved=0;rounded=0;" parent="1" edge="1">
          <mxGeometry relative="1" as="geometry">
            <mxPoint x="1045" y="2000" as="sourcePoint" />
            <mxPoint x="109.07142857142844" y="2000" as="targetPoint" />
          </mxGeometry>
        </mxCell>
        <mxCell id="Ng8NAmU_FJ0zgmwMVsHG-19" value="&lt;font style=&quot;font-size: 18px;&quot;&gt;[ else if&amp;nbsp; request == back ]&amp;nbsp;&lt;/font&gt;" style="text;align=center;fontStyle=1;verticalAlign=middle;spacingLeft=3;spacingRight=3;strokeColor=none;rotatable=0;points=[[0,0.5],[1,0.5]];portConstraint=eastwest;html=1;" parent="1" vertex="1">
          <mxGeometry x="190" y="2040" width="80" height="26" as="geometry" />
        </mxCell>
        <mxCell id="Ng8NAmU_FJ0zgmwMVsHG-25" value="&lt;font style=&quot;font-size: 18px;&quot;&gt;save&lt;/font&gt;" style="html=1;verticalAlign=bottom;endArrow=block;curved=0;rounded=0;" parent="1" target="Ng8NAmU_FJ0zgmwMVsHG-24" edge="1">
          <mxGeometry width="80" relative="1" as="geometry">
            <mxPoint x="740" y="2250" as="sourcePoint" />
            <mxPoint x="1335" y="2250" as="targetPoint" />
          </mxGeometry>
        </mxCell>
        <mxCell id="Ng8NAmU_FJ0zgmwMVsHG-26" value="&lt;font style=&quot;font-size: 18px;&quot;&gt;return&lt;/font&gt;" style="html=1;verticalAlign=bottom;endArrow=open;dashed=1;endSize=8;curved=0;rounded=0;" parent="1" source="Ng8NAmU_FJ0zgmwMVsHG-24" edge="1">
          <mxGeometry relative="1" as="geometry">
            <mxPoint x="1340" y="2290" as="sourcePoint" />
            <mxPoint x="740" y="2290" as="targetPoint" />
          </mxGeometry>
        </mxCell>
        <mxCell id="Ng8NAmU_FJ0zgmwMVsHG-24" value="" style="html=1;points=[[0,0,0,0,5],[0,1,0,0,-5],[1,0,0,0,5],[1,1,0,0,-5]];perimeter=orthogonalPerimeter;outlineConnect=0;targetShapes=umlLifeline;portConstraint=eastwest;newEdgeStyle={&quot;curved&quot;:0,&quot;rounded&quot;:0};" parent="1" vertex="1">
          <mxGeometry x="1210" y="2250" width="10" height="40" as="geometry" />
        </mxCell>
        <mxCell id="Ng8NAmU_FJ0zgmwMVsHG-37" value="" style="endArrow=none;dashed=1;html=1;rounded=0;entryX=1.001;entryY=0.663;entryDx=0;entryDy=0;entryPerimeter=0;" parent="1" edge="1" target="9tcAmHAzB1ku4BKzbsAg-23">
          <mxGeometry width="50" height="50" relative="1" as="geometry">
            <mxPoint x="90" y="2028" as="sourcePoint" />
            <mxPoint x="1370" y="2033" as="targetPoint" />
          </mxGeometry>
        </mxCell>
        <mxCell id="Ng8NAmU_FJ0zgmwMVsHG-38" value="" style="endArrow=none;dashed=1;html=1;rounded=0;exitX=0.001;exitY=0.124;exitDx=0;exitDy=0;exitPerimeter=0;" parent="1" edge="1">
          <mxGeometry width="50" height="50" relative="1" as="geometry">
            <mxPoint x="70.00000000000006" y="660" as="sourcePoint" />
            <mxPoint x="1290" y="660" as="targetPoint" />
          </mxGeometry>
        </mxCell>
        <mxCell id="2cCDK_9BDTkygWFoT9Ya-1" value="" style="html=1;points=[[0,0,0,0,5],[0,1,0,0,-5],[1,0,0,0,5],[1,1,0,0,-5]];perimeter=orthogonalPerimeter;outlineConnect=0;targetShapes=umlLifeline;portConstraint=eastwest;newEdgeStyle={&quot;curved&quot;:0,&quot;rounded&quot;:0};" vertex="1" parent="1">
          <mxGeometry x="1045" y="1840" width="10" height="40" as="geometry" />
        </mxCell>
        <mxCell id="2cCDK_9BDTkygWFoT9Ya-4" value="&lt;font style=&quot;font-size: 18px;&quot;&gt;return&lt;/font&gt;" style="html=1;verticalAlign=bottom;endArrow=open;dashed=1;endSize=8;curved=0;rounded=0;" edge="1" parent="1">
          <mxGeometry relative="1" as="geometry">
            <mxPoint x="1045" y="1880" as="sourcePoint" />
            <mxPoint x="109.07142857142844" y="1880" as="targetPoint" />
          </mxGeometry>
        </mxCell>
      </root>
    </mxGraphModel>
  </diagram>
</mxfile>
